<svg xmlns="http://www.w3.org/2000/svg" xmlns:xlink="http://www.w3.org/1999/xlink" xmlns:xodm="http://www.corel.com/coreldraw/odm/2003" xml:space="preserve" width="1741px" height="396px" fill-rule="evenodd" clip-rule="evenodd" viewBox="0 0 1752.74 398.47"> <g id="Layer_x0020_1">  <metadata id="CorelCorpID_0Corel-Layer"></metadata>  <polygon fill="#2B2A29" fill-rule="nonzero" points="378.18,292.69 378.18,285.41 504.24,101.17 390.96,101.17 390.96,54.67 586.89,54.67 586.89,62.16 461.27,246.18 581.6,246.18 581.6,292.69 "></polygon>  <polygon id="_1" fill="#2B2A29" fill-rule="nonzero" points="652.73,398.47 698.57,272.63 699.45,309.66 595.65,54.67 650.97,54.67 724.58,243.32 710.47,243.32 782.1,54.67 835.21,54.67 702.54,398.47 "></polygon>  <path id="_2" fill="#2B2A29" fill-rule="nonzero" d="M1139.95 292.69l0 -144.58c0,-16.31 -4.04,-29.09 -12.12,-38.27 -8.08,-9.19 -19.02,-13.74 -32.84,-13.74 -8.52,0 -16.16,1.91 -22.92,5.8 -6.75,3.9 -12.12,9.63 -16.08,17.19 -3.97,7.57 -5.96,16.61 -5.96,27.04l-23.58 -13.89c-0.14,-16.45 3.6,-31 11.17,-43.56 7.57,-12.56 17.78,-22.33 30.71,-29.39 12.93,-7.05 27.33,-10.57 43.19,-10.57 26.3,0 46.51,7.86 60.54,23.65 14.03,15.8 21.01,36.58 21.01,62.3l0 158.02 -53.12 0zm-286.28 0l0 -238.02 46.94 0 0 73.83 6.61 0 0 164.19 -53.55 0zm143.47 0l0 -143.92c0,-16.6 -4.04,-29.53 -12.12,-38.79 -8.08,-9.25 -19.1,-13.88 -33.06,-13.88 -13.52,0 -24.31,4.63 -32.47,13.88 -8.15,9.26 -12.27,21.31 -12.27,36.15l-23.8 -15.87c0,-15.43 3.82,-29.31 11.46,-41.65 7.64,-12.35 18,-22.12 31,-29.24 13.01,-7.13 27.55,-10.65 43.71,-10.65 17.78,0 32.69,3.74 44.67,11.31 11.97,7.57 20.94,17.85 26.89,30.85 5.95,13.01 8.88,27.7 8.88,44.01l0 157.8 -52.89 0z"></path>  <path id="_3" fill="#2B2A29" fill-rule="nonzero" d="M1522.27 292.69l0 -144.58c0,-16.31 -4.04,-29.09 -12.12,-38.27 -8.08,-9.19 -19.03,-13.74 -32.84,-13.74 -8.52,0 -16.16,1.91 -22.92,5.8 -6.76,3.9 -12.12,9.63 -16.09,17.19 -3.96,7.57 -5.95,16.61 -5.95,27.04l-23.58 -13.89c-0.15,-16.45 3.6,-31 11.17,-43.56 7.56,-12.56 17.78,-22.33 30.71,-29.39 12.93,-7.05 27.32,-10.57 43.19,-10.57 26.3,0 46.5,7.86 60.53,23.65 14.04,15.8 21.02,36.58 21.02,62.3l0 158.02 -53.12 0zm-286.28 0l0 -238.02 46.94 0 0 73.83 6.61 0 0 164.19 -53.55 0zm143.47 0l0 -143.92c0,-16.6 -4.04,-29.53 -12.12,-38.79 -8.08,-9.25 -19.1,-13.88 -33.06,-13.88 -13.52,0 -24.32,4.63 -32.47,13.88 -8.15,9.26 -12.27,21.31 -12.27,36.15l-23.8 -15.87c0,-15.43 3.82,-29.31 11.46,-41.65 7.64,-12.35 18,-22.12 31,-29.24 13,-7.13 27.55,-10.65 43.71,-10.65 17.78,0 32.69,3.74 44.67,11.31 11.97,7.57 20.93,17.85 26.88,30.85 5.95,13.01 8.89,27.7 8.89,44.01l0 157.8 -52.89 0z"></path>  <path id="_4" fill="#2B2A29" fill-rule="nonzero" d="M1618.75 292.69l0 -238.02 46.94 0 0 57.96 -5.73 -7.5c2.94,-7.93 6.9,-15.2 11.83,-21.74 4.92,-6.54 10.79,-11.9 17.7,-16.16 5.88,-3.97 12.42,-7.13 19.54,-9.41 7.13,-2.27 14.4,-3.67 21.89,-4.18 7.5,-0.52 14.77,-0.15 21.82,1.03l0 49.58c-7.05,-2.05 -15.13,-2.71 -24.31,-1.98 -9.19,0.73 -17.49,3.31 -24.83,7.71 -7.35,3.97 -13.3,9.04 -17.93,15.21 -4.63,6.17 -8.08,13.15 -10.28,21.01 -2.21,7.86 -3.31,16.38 -3.31,25.49l0 121 -53.33 0z"></path>  <path fill="#95D4FF" d="M161.14 31.52l0 0c10.73,6.32 13.65,19.86 6.49,30.09l-61.19 87.41c-7.16,10.23 -21.79,13.43 -32.52,7.11l0 0c-10.72,-6.32 -13.64,-19.86 -6.48,-30.09l61.18 -87.41c7.16,-10.23 21.8,-13.43 32.52,-7.11z"></path>  <path fill="#95D4FF" d="M267.54 194.34l0 0c10.73,6.32 13.64,19.86 6.48,30.09l-65.04 92.92c-7.16,10.24 -21.79,13.44 -32.52,7.12l0 0c-10.73,-6.32 -13.64,-19.86 -6.48,-30.1l65.04 -92.92c7.16,-10.23 21.79,-13.43 32.52,-7.11z"></path>  <path fill="#FFC42C" d="M145.1 211.89l0 0c10.72,6.32 13.64,19.86 6.48,30.09l-75.32 107.61c-7.16,10.23 -21.79,13.43 -32.52,7.11l0 0c-10.73,-6.32 -13.64,-19.86 -6.49,-30.09l75.33 -107.61c7.16,-10.23 21.79,-13.43 32.52,-7.11z"></path>  <path fill="#FD92D8" d="M216.23 110.26l0 0c10.73,6.32 13.66,19.83 6.52,30.03l-71.13 101.63c7.17,-10.24 4.25,-23.69 -6.52,-30.03 -10.77,-6.35 -25.32,-3.19 -32.48,7.05l71.13 -101.63c7.14,-10.2 21.75,-13.37 32.48,-7.05z"></path>  <path fill="#B640F6" d="M291.12 3.25l0 0c10.73,6.32 13.66,19.84 6.53,30.04l-75.41 107.73 -0.34 0.47 0.34 -0.48c7.17,-10.24 4.25,-23.68 -6.52,-30.03 -10.77,-6.34 -25.31,-3.18 -32.48,7.06l75.4 -107.73c7.14,-10.2 21.76,-13.38 32.48,-7.06zm-100.85 145.11l-0.51 -0.29 0 0 0.51 0.29z"></path>  <path fill="#B640F6" d="M22.74 66.04c12.55,0 22.73,10.18 22.73,22.74 0,12.55 -10.18,22.73 -22.73,22.73 -12.56,0 -22.74,-10.18 -22.74,-22.73 0,-12.56 10.18,-22.74 22.74,-22.74z"></path>  <path fill="#B640F6" d="M312.6 247.14c12.56,0 22.74,10.18 22.74,22.74 0,12.55 -10.18,22.73 -22.74,22.73 -12.55,0 -22.73,-10.18 -22.73,-22.73 0,-12.56 10.18,-22.74 22.73,-22.74z"></path> </g></svg>